<mxfile host="app.diagrams.net" agent="Mozilla/5.0 (Windows NT 10.0; Win64; x64) AppleWebKit/537.36 (KHTML, like Gecko) Chrome/131.0.0.0 Safari/537.36" version="26.0.3">
  <diagram name="Page-1" id="0zojyjy2FVzmpQf1uZpE">
    <mxGraphModel dx="1232" dy="1132" grid="1" gridSize="10" guides="1" tooltips="1" connect="1" arrows="1" fold="1" page="1" pageScale="1" pageWidth="850" pageHeight="1100" math="0" shadow="0">
      <root>
        <mxCell id="0" />
        <mxCell id="1" parent="0" />
        <mxCell id="T_6qr1tEsvwIQ1YMPx3j-11" value="" style="edgeStyle=orthogonalEdgeStyle;rounded=0;orthogonalLoop=1;jettySize=auto;html=1;startArrow=classic;startFill=1;shape=link;" edge="1" parent="1" source="T_6qr1tEsvwIQ1YMPx3j-1" target="T_6qr1tEsvwIQ1YMPx3j-3">
          <mxGeometry relative="1" as="geometry" />
        </mxCell>
        <mxCell id="T_6qr1tEsvwIQ1YMPx3j-12" value="1. Send Even&lt;span style=&quot;background-color: light-dark(#ffffff, var(--ge-dark-color, #121212)); color: light-dark(rgb(0, 0, 0), rgb(255, 255, 255));&quot;&gt;ts&lt;/span&gt;" style="edgeLabel;html=1;align=center;verticalAlign=middle;resizable=0;points=[];" vertex="1" connectable="0" parent="T_6qr1tEsvwIQ1YMPx3j-11">
          <mxGeometry x="-0.0297" y="-6" relative="1" as="geometry">
            <mxPoint as="offset" />
          </mxGeometry>
        </mxCell>
        <mxCell id="T_6qr1tEsvwIQ1YMPx3j-1" value="Windows 10 Client&amp;nbsp;&lt;div&gt;Wazuh Agent&lt;/div&gt;" style="verticalAlign=top;verticalLabelPosition=bottom;labelPosition=center;align=center;html=1;outlineConnect=0;fillColor=#f8cecc;strokeColor=#b85450;gradientDirection=north;strokeWidth=2;shape=mxgraph.networks.pc;" vertex="1" parent="1">
          <mxGeometry x="349.74" y="640" width="150" height="120" as="geometry" />
        </mxCell>
        <mxCell id="T_6qr1tEsvwIQ1YMPx3j-16" style="edgeStyle=orthogonalEdgeStyle;rounded=0;orthogonalLoop=1;jettySize=auto;html=1;shape=link;" edge="1" parent="1" source="T_6qr1tEsvwIQ1YMPx3j-3" target="T_6qr1tEsvwIQ1YMPx3j-5">
          <mxGeometry relative="1" as="geometry" />
        </mxCell>
        <mxCell id="T_6qr1tEsvwIQ1YMPx3j-3" value="Router" style="verticalLabelPosition=bottom;sketch=0;aspect=fixed;html=1;verticalAlign=top;strokeColor=none;align=center;outlineConnect=0;shape=mxgraph.citrix.router;" vertex="1" parent="1">
          <mxGeometry x="382" y="470" width="85.48" height="56.73" as="geometry" />
        </mxCell>
        <mxCell id="T_6qr1tEsvwIQ1YMPx3j-17" style="edgeStyle=orthogonalEdgeStyle;rounded=0;orthogonalLoop=1;jettySize=auto;html=1;shape=link;" edge="1" parent="1" source="T_6qr1tEsvwIQ1YMPx3j-5" target="T_6qr1tEsvwIQ1YMPx3j-6">
          <mxGeometry relative="1" as="geometry" />
        </mxCell>
        <mxCell id="T_6qr1tEsvwIQ1YMPx3j-19" value="2. Receive Events" style="edgeLabel;html=1;align=center;verticalAlign=middle;resizable=0;points=[];" vertex="1" connectable="0" parent="T_6qr1tEsvwIQ1YMPx3j-17">
          <mxGeometry x="-0.0239" relative="1" as="geometry">
            <mxPoint as="offset" />
          </mxGeometry>
        </mxCell>
        <mxCell id="T_6qr1tEsvwIQ1YMPx3j-29" style="rounded=0;orthogonalLoop=1;jettySize=auto;html=1;shape=link;fillColor=#ffe6cc;strokeColor=#d79b00;" edge="1" parent="1" source="T_6qr1tEsvwIQ1YMPx3j-5" target="T_6qr1tEsvwIQ1YMPx3j-9">
          <mxGeometry relative="1" as="geometry" />
        </mxCell>
        <mxCell id="T_6qr1tEsvwIQ1YMPx3j-30" value="7. Send and Receive Email" style="edgeLabel;html=1;align=center;verticalAlign=middle;resizable=0;points=[];" vertex="1" connectable="0" parent="T_6qr1tEsvwIQ1YMPx3j-29">
          <mxGeometry x="-0.094" relative="1" as="geometry">
            <mxPoint as="offset" />
          </mxGeometry>
        </mxCell>
        <mxCell id="T_6qr1tEsvwIQ1YMPx3j-5" value="Internet" style="image;aspect=fixed;perimeter=ellipsePerimeter;html=1;align=center;shadow=0;dashed=0;spacingTop=3;image=img/lib/active_directory/internet_cloud.svg;" vertex="1" parent="1">
          <mxGeometry x="361.31" y="230" width="142.86" height="90" as="geometry" />
        </mxCell>
        <mxCell id="T_6qr1tEsvwIQ1YMPx3j-20" style="rounded=0;orthogonalLoop=1;jettySize=auto;html=1;shape=link;fillColor=#dae8fc;strokeColor=#6c8ebf;" edge="1" parent="1" source="T_6qr1tEsvwIQ1YMPx3j-6" target="T_6qr1tEsvwIQ1YMPx3j-8">
          <mxGeometry relative="1" as="geometry" />
        </mxCell>
        <mxCell id="T_6qr1tEsvwIQ1YMPx3j-21" value="3. Send Alerts" style="edgeLabel;html=1;align=center;verticalAlign=middle;resizable=0;points=[];" vertex="1" connectable="0" parent="T_6qr1tEsvwIQ1YMPx3j-20">
          <mxGeometry x="-0.0981" y="1" relative="1" as="geometry">
            <mxPoint as="offset" />
          </mxGeometry>
        </mxCell>
        <mxCell id="T_6qr1tEsvwIQ1YMPx3j-36" style="rounded=0;orthogonalLoop=1;jettySize=auto;html=1;shape=link;fillColor=#f8cecc;strokeColor=#b85450;" edge="1" parent="1" source="T_6qr1tEsvwIQ1YMPx3j-6" target="T_6qr1tEsvwIQ1YMPx3j-1">
          <mxGeometry relative="1" as="geometry" />
        </mxCell>
        <mxCell id="T_6qr1tEsvwIQ1YMPx3j-37" value="8 Perform Responsive Action" style="edgeLabel;html=1;align=center;verticalAlign=middle;resizable=0;points=[];" vertex="1" connectable="0" parent="T_6qr1tEsvwIQ1YMPx3j-36">
          <mxGeometry x="-0.4182" relative="1" as="geometry">
            <mxPoint as="offset" />
          </mxGeometry>
        </mxCell>
        <mxCell id="T_6qr1tEsvwIQ1YMPx3j-6" value="Wazuh Manag&lt;span style=&quot;background-color: light-dark(#ffffff, var(--ge-dark-color, #121212)); color: light-dark(rgb(0, 0, 0), rgb(255, 255, 255));&quot;&gt;er&lt;br&gt;&lt;/span&gt;" style="image;aspect=fixed;perimeter=ellipsePerimeter;html=1;align=center;shadow=0;dashed=0;spacingTop=3;image=img/lib/active_directory/internet_cloud.svg;" vertex="1" parent="1">
          <mxGeometry x="30" y="230" width="142.86" height="90" as="geometry" />
        </mxCell>
        <mxCell id="T_6qr1tEsvwIQ1YMPx3j-7" value="TheHive" style="image;aspect=fixed;perimeter=ellipsePerimeter;html=1;align=center;shadow=0;dashed=0;spacingTop=3;image=img/lib/active_directory/internet_cloud.svg;" vertex="1" parent="1">
          <mxGeometry x="639.9999999999999" y="230" width="142.86" height="90" as="geometry" />
        </mxCell>
        <mxCell id="T_6qr1tEsvwIQ1YMPx3j-22" style="edgeStyle=orthogonalEdgeStyle;rounded=0;orthogonalLoop=1;jettySize=auto;html=1;shape=link;fillColor=#d5e8d4;strokeColor=#82b366;" edge="1" parent="1" source="T_6qr1tEsvwIQ1YMPx3j-8" target="T_6qr1tEsvwIQ1YMPx3j-5">
          <mxGeometry relative="1" as="geometry" />
        </mxCell>
        <mxCell id="T_6qr1tEsvwIQ1YMPx3j-23" value="4. Enrich IOCS" style="edgeLabel;html=1;align=center;verticalAlign=middle;resizable=0;points=[];" vertex="1" connectable="0" parent="T_6qr1tEsvwIQ1YMPx3j-22">
          <mxGeometry x="0.0769" y="-1" relative="1" as="geometry">
            <mxPoint as="offset" />
          </mxGeometry>
        </mxCell>
        <mxCell id="T_6qr1tEsvwIQ1YMPx3j-25" style="rounded=0;orthogonalLoop=1;jettySize=auto;html=1;shape=link;fillColor=#dae8fc;strokeColor=#6c8ebf;" edge="1" parent="1" source="T_6qr1tEsvwIQ1YMPx3j-8" target="T_6qr1tEsvwIQ1YMPx3j-7">
          <mxGeometry relative="1" as="geometry" />
        </mxCell>
        <mxCell id="T_6qr1tEsvwIQ1YMPx3j-26" value="5. Send Alerts" style="edgeLabel;html=1;align=center;verticalAlign=middle;resizable=0;points=[];" vertex="1" connectable="0" parent="T_6qr1tEsvwIQ1YMPx3j-25">
          <mxGeometry x="-0.2493" y="-1" relative="1" as="geometry">
            <mxPoint as="offset" />
          </mxGeometry>
        </mxCell>
        <mxCell id="T_6qr1tEsvwIQ1YMPx3j-27" style="rounded=0;orthogonalLoop=1;jettySize=auto;html=1;fillColor=#ffe6cc;strokeColor=#d79b00;shape=link;" edge="1" parent="1" source="T_6qr1tEsvwIQ1YMPx3j-8" target="T_6qr1tEsvwIQ1YMPx3j-5">
          <mxGeometry relative="1" as="geometry">
            <Array as="points">
              <mxPoint x="560" y="275" />
            </Array>
          </mxGeometry>
        </mxCell>
        <mxCell id="T_6qr1tEsvwIQ1YMPx3j-28" value="6. Send Email" style="edgeLabel;html=1;align=center;verticalAlign=middle;resizable=0;points=[];" vertex="1" connectable="0" parent="T_6qr1tEsvwIQ1YMPx3j-27">
          <mxGeometry x="-0.1503" relative="1" as="geometry">
            <mxPoint as="offset" />
          </mxGeometry>
        </mxCell>
        <mxCell id="T_6qr1tEsvwIQ1YMPx3j-33" style="rounded=0;orthogonalLoop=1;jettySize=auto;html=1;shape=link;fillColor=#f8cecc;strokeColor=#b85450;" edge="1" parent="1" source="T_6qr1tEsvwIQ1YMPx3j-8" target="T_6qr1tEsvwIQ1YMPx3j-5">
          <mxGeometry relative="1" as="geometry">
            <Array as="points">
              <mxPoint x="370" y="170" />
            </Array>
          </mxGeometry>
        </mxCell>
        <mxCell id="T_6qr1tEsvwIQ1YMPx3j-34" style="rounded=0;orthogonalLoop=1;jettySize=auto;html=1;fillColor=#f8cecc;strokeColor=#b85450;shape=link;" edge="1" parent="1" source="T_6qr1tEsvwIQ1YMPx3j-8" target="T_6qr1tEsvwIQ1YMPx3j-6">
          <mxGeometry relative="1" as="geometry">
            <Array as="points">
              <mxPoint x="100" y="55" />
            </Array>
          </mxGeometry>
        </mxCell>
        <mxCell id="T_6qr1tEsvwIQ1YMPx3j-35" value="8. Send Response Action" style="edgeLabel;html=1;align=center;verticalAlign=middle;resizable=0;points=[];" vertex="1" connectable="0" parent="T_6qr1tEsvwIQ1YMPx3j-34">
          <mxGeometry x="0.5874" y="-1" relative="1" as="geometry">
            <mxPoint as="offset" />
          </mxGeometry>
        </mxCell>
        <mxCell id="T_6qr1tEsvwIQ1YMPx3j-8" value="Shuffle" style="image;aspect=fixed;perimeter=ellipsePerimeter;html=1;align=center;shadow=0;dashed=0;spacingTop=3;image=img/lib/active_directory/internet_cloud.svg;" vertex="1" parent="1">
          <mxGeometry x="361.31" y="10" width="142.86" height="90" as="geometry" />
        </mxCell>
        <mxCell id="T_6qr1tEsvwIQ1YMPx3j-31" style="rounded=0;orthogonalLoop=1;jettySize=auto;html=1;fillColor=#f8cecc;strokeColor=#b85450;shape=link;" edge="1" parent="1" source="T_6qr1tEsvwIQ1YMPx3j-9" target="T_6qr1tEsvwIQ1YMPx3j-5">
          <mxGeometry relative="1" as="geometry">
            <Array as="points">
              <mxPoint x="520" y="460" />
            </Array>
          </mxGeometry>
        </mxCell>
        <mxCell id="T_6qr1tEsvwIQ1YMPx3j-32" value="8.&amp;nbsp;&lt;span style=&quot;background-color: light-dark(#ffffff, var(--ge-dark-color, #121212)); color: light-dark(rgb(0, 0, 0), rgb(255, 255, 255));&quot;&gt;Send Response Action&lt;/span&gt;" style="edgeLabel;html=1;align=center;verticalAlign=middle;resizable=0;points=[];" vertex="1" connectable="0" parent="T_6qr1tEsvwIQ1YMPx3j-31">
          <mxGeometry x="-0.2629" y="2" relative="1" as="geometry">
            <mxPoint as="offset" />
          </mxGeometry>
        </mxCell>
        <mxCell id="T_6qr1tEsvwIQ1YMPx3j-9" value="SOC Analyst" style="fontColor=#0066CC;verticalAlign=top;verticalLabelPosition=bottom;labelPosition=center;align=center;html=1;outlineConnect=0;fillColor=#CCCCCC;strokeColor=#6881B3;gradientColor=none;gradientDirection=north;strokeWidth=2;shape=mxgraph.networks.pc;" vertex="1" parent="1">
          <mxGeometry x="640" y="460" width="150" height="120" as="geometry" />
        </mxCell>
        <mxCell id="T_6qr1tEsvwIQ1YMPx3j-45" value="" style="edgeStyle=orthogonalEdgeStyle;rounded=0;orthogonalLoop=1;jettySize=auto;html=1;" edge="1" parent="1" source="T_6qr1tEsvwIQ1YMPx3j-38" target="T_6qr1tEsvwIQ1YMPx3j-44">
          <mxGeometry relative="1" as="geometry" />
        </mxCell>
        <mxCell id="T_6qr1tEsvwIQ1YMPx3j-38" value="Windows 10&amp;nbsp;&lt;div&gt;Send Events&lt;/div&gt;" style="text;html=1;align=center;verticalAlign=middle;resizable=0;points=[];autosize=1;strokeColor=none;fillColor=none;" vertex="1" parent="1">
          <mxGeometry x="30" y="820" width="90" height="40" as="geometry" />
        </mxCell>
        <mxCell id="T_6qr1tEsvwIQ1YMPx3j-48" value="" style="edgeStyle=orthogonalEdgeStyle;rounded=0;orthogonalLoop=1;jettySize=auto;html=1;" edge="1" parent="1" source="T_6qr1tEsvwIQ1YMPx3j-44" target="T_6qr1tEsvwIQ1YMPx3j-47">
          <mxGeometry relative="1" as="geometry" />
        </mxCell>
        <mxCell id="T_6qr1tEsvwIQ1YMPx3j-44" value="Wazuh Manager&lt;div&gt;Trigger Alerts &amp;amp; Perform response actions&lt;/div&gt;" style="text;html=1;align=center;verticalAlign=middle;resizable=0;points=[];autosize=1;strokeColor=none;fillColor=none;" vertex="1" parent="1">
          <mxGeometry x="190" y="820" width="250" height="40" as="geometry" />
        </mxCell>
        <mxCell id="T_6qr1tEsvwIQ1YMPx3j-50" value="" style="edgeStyle=orthogonalEdgeStyle;rounded=0;orthogonalLoop=1;jettySize=auto;html=1;" edge="1" parent="1" source="T_6qr1tEsvwIQ1YMPx3j-47" target="T_6qr1tEsvwIQ1YMPx3j-49">
          <mxGeometry relative="1" as="geometry" />
        </mxCell>
        <mxCell id="T_6qr1tEsvwIQ1YMPx3j-52" value="" style="edgeStyle=orthogonalEdgeStyle;rounded=0;orthogonalLoop=1;jettySize=auto;html=1;" edge="1" parent="1" source="T_6qr1tEsvwIQ1YMPx3j-47" target="T_6qr1tEsvwIQ1YMPx3j-51">
          <mxGeometry relative="1" as="geometry" />
        </mxCell>
        <mxCell id="T_6qr1tEsvwIQ1YMPx3j-54" value="" style="edgeStyle=orthogonalEdgeStyle;rounded=0;orthogonalLoop=1;jettySize=auto;html=1;" edge="1" parent="1" source="T_6qr1tEsvwIQ1YMPx3j-47" target="T_6qr1tEsvwIQ1YMPx3j-53">
          <mxGeometry relative="1" as="geometry" />
        </mxCell>
        <mxCell id="T_6qr1tEsvwIQ1YMPx3j-47" value="Shuffle&lt;div&gt;Receive Wazuh Alerts &amp;amp; Send response actions&lt;/div&gt;" style="text;html=1;align=center;verticalAlign=middle;resizable=0;points=[];autosize=1;strokeColor=none;fillColor=none;" vertex="1" parent="1">
          <mxGeometry x="505" y="820" width="280" height="40" as="geometry" />
        </mxCell>
        <mxCell id="T_6qr1tEsvwIQ1YMPx3j-49" value="OSINT&lt;div&gt;Enrich IOCS&lt;/div&gt;" style="text;html=1;align=center;verticalAlign=middle;resizable=0;points=[];autosize=1;strokeColor=none;fillColor=none;" vertex="1" parent="1">
          <mxGeometry x="600" y="710" width="90" height="40" as="geometry" />
        </mxCell>
        <mxCell id="T_6qr1tEsvwIQ1YMPx3j-51" value="TheHive&lt;div&gt;Create alert in case management&lt;/div&gt;" style="text;html=1;align=center;verticalAlign=middle;resizable=0;points=[];autosize=1;strokeColor=none;fillColor=none;" vertex="1" parent="1">
          <mxGeometry x="545" y="940" width="200" height="40" as="geometry" />
        </mxCell>
        <mxCell id="T_6qr1tEsvwIQ1YMPx3j-53" value="Email&lt;div&gt;Send email &amp;amp; response actions&lt;/div&gt;" style="text;html=1;align=center;verticalAlign=middle;resizable=0;points=[];autosize=1;strokeColor=none;fillColor=none;" vertex="1" parent="1">
          <mxGeometry x="910" y="820" width="190" height="40" as="geometry" />
        </mxCell>
      </root>
    </mxGraphModel>
  </diagram>
</mxfile>
